<svg xmlns="http://www.w3.org/2000/svg" width="173" height="164" viewBox="0 0 173 164"><g fill="none"><path d="M171.721 96.878c-3.98-18.188-13.28-38.31-15.563-41.918a18.73 18.73 0 0 0-5.045-5.239c-2.687-1.823-5.35-2.366-7.701-1.572a10.46 10.46 0 0 0-4.153 2.61 8.788 8.788 0 0 0-5.563.312 9.341 9.341 0 0 0-5.108 5.15h-.212a7.904 7.904 0 0 0-6.924 3.39 16.247 16.247 0 0 0-2.475 6.638c-1.447.048-2.89.173-4.324.376V55.709c0-.217.086-.426.24-.579l.687-.687c2.061-2.06 1.466-5.312-.299-7.264l-4.427-4.433a4614.74 4614.74 0 0 1 3.442-8.06c3.54-8.286 7.946-18.598 9.294-21.908a14.945 14.945 0 0 0 .919-7.66 8.173 8.173 0 0 0-4.17-6.448c-1.827-.897-6.568-2.146-11.135 5.66a35.219 35.219 0 0 1-8.666 9.808c-3.046 2.592-6.196 5.27-8.198 10.056-.121.29-.328.81-.568 1.52-.18-.509-.375-1.016-.586-1.52-2.004-4.785-5.154-7.464-8.2-10.056a35.216 35.216 0 0 1-8.664-9.807c-4.56-7.807-9.306-6.558-11.132-5.661a8.18 8.18 0 0 0-4.179 6.443c-.37 2.59-.052 5.231.92 7.66 1.752 4.313 10.508 25.05 12.587 29.976l-4.452 4.452a5.21 5.21 0 0 0 0 7.366l.39.39a.824.824 0 0 1 .24.578v2.676c-10.648-2.27-23.21-1.527-35.012 2.13-15.41 4.773-27.716 13.88-34.67 25.644a6.435 6.435 0 0 0-.879 3.006 6.697 6.697 0 0 0 .265 2.083c6.348 22.484 17.467 35.918 25.676 43.23 9.236 8.224 17.107 10.912 17.44 11.023l1.046.348 1.09-.168a24.39 24.39 0 0 0 6.612-2.128c4.768 4.975 11.674 9.771 20.546 14.273a127.954 127.954 0 0 0 18.447 7.65 8.802 8.802 0 0 0 2.59.398 7.9 7.9 0 0 0 2.565-.422c23.742-8.112 36.289-19.096 40.896-23.838.8.945 1.654 1.84 2.56 2.684.213.196.408.391.594.597l.613.68.154.02c6.123 5.618 12.078 8.086 20.17 10.389a5.47 5.47 0 0 0 4.114-.436 7.224 7.224 0 0 0 2.236-2.078l.061-.08c10.524-13.456 12.07-28.194 5.911-56.338z"/><path fill="#004987" d="M169.3 97.408c-3.87-17.69-13.053-37.664-15.237-41.127-1.968-3.12-6.323-6.979-9.86-5.79a8.091 8.091 0 0 0-4.13 3.167 6.827 6.827 0 0 0-5.426-.303c-2.648 1.095-3.504 3.04-4.465 5.504-2.335-.425-5.203-.147-6.64 2.085a13.876 13.876 0 0 0-2.24 7.756 30.67 30.67 0 0 0-9.118.991V55.71c0-.874.347-1.712.965-2.33l.687-.687c1.028-1.029.59-2.775-.385-3.854l-4.96-4.96a1.177 1.177 0 0 1-.248-1.292c2.656-6.263 11.124-25.97 13.065-30.746 1.59-3.916 1.135-9.375-2.059-10.948-1.497-.738-4.512-1.107-7.903 4.69a37.77 37.77 0 0 1-9.194 10.443c-2.952 2.513-5.745 4.886-7.52 9.125a24.907 24.907 0 0 0-1.289 4.28c-.103.489-.196 1.327-.196 1.327a7.124 7.124 0 0 0-2.411 1.066c-.088-.62-.318-1.77-.454-2.383a25.178 25.178 0 0 0-1.372-4.292c-1.774-4.238-4.564-6.611-7.519-9.125A37.807 37.807 0 0 1 72.197 5.58C68.806-.217 65.79.154 64.294.89c-3.194 1.574-3.65 7.039-2.058 10.95 1.816 4.468 11.098 26.448 12.915 30.749a1.18 1.18 0 0 1-.253 1.293l-5.07 5.07a2.724 2.724 0 0 0 0 3.86l.389.39c.618.617.965 1.456.965 2.33v5.834c-10.728-3.004-24.223-2.546-36.766 1.336-14.85 4.605-26.633 13.302-33.27 24.544a3.93 3.93 0 0 0-.532 1.845c-.01.443.048.884.175 1.309 6.177 21.88 16.943 34.931 24.939 42.052 8.868 7.897 16.264 10.42 16.573 10.523l.479.16.5-.077c2.65-.479 5.2-1.408 7.536-2.748 10.613 12.192 32.654 20.618 39.176 22.623a5.857 5.857 0 0 0 3.627 0c30.088-10.281 41.82-25.338 41.82-25.338a33.205 33.205 0 0 0 4.114 4.703c.287.265.533.515.75.755h.043c5.936 5.636 11.513 8.019 19.738 10.36a2.97 2.97 0 0 0 2.238-.221 5.222 5.222 0 0 0 1.542-1.509c9.825-12.561 11.5-26.563 5.437-54.275z"/><path fill="#FFCD00" d="M92.332 91.55h-5.029a3.595 3.595 0 0 1-3.564-3.138c-3.197-.851-3.93-3.77-5.093-6.183-1.722-3.578-5.961-3.312-6.826-7.746l-2.64 14.603a17.44 17.44 0 0 0 4.915 14.23c5.184 4.363 8.664 3.388 7.272-.228-1.391-3.615-4.454-11.143-5.152-18.801 3.342 7.658 7.285 19.319 14.99 25.81a12.032 12.032 0 0 1-.282-12.615 10.29 10.29 0 0 0 1.409-5.932z"/><g fill="#FFCD00"><path d="M95.621 135.998a86.895 86.895 0 0 0 5.73-.574 4.735 4.735 0 0 1 3.355 1.578 87.176 87.176 0 0 0 5.372-1.111c-1.548-2.142-5.057-4.38-7.662-4.273-1.164.172-2.33.32-3.496.444a239.678 239.678 0 0 1-3.299 3.936zm9.19 5.229a6.323 6.323 0 0 1-3.346 2.65 87.358 87.358 0 0 1-12.835.768v3.66c4.62.065 9.24-.236 13.812-.9 2.678-.478 6.279-4.319 7.743-7.29a88.467 88.467 0 0 1-5.374 1.112zm-21.855-11.78l-.015 1.859c1.513.122 3.032.204 4.556.246v-1.863c.011-1.109.991-2.405 2.384-3.632-2.183 0-4.364-.083-6.543-.248-1.4 1.125-2.384 2.348-2.402 3.457.674.063 1.348.123 2.02.182z"/><path d="M87.464 143.487a229.952 229.952 0 0 0 3.125-3.462c.572 1.22 1.146 2.434 1.722 3.641a85.577 85.577 0 0 0 5.016-.286 648.038 648.038 0 0 1-3.263-7.18c2-2.293 3.98-4.654 5.941-7.085a98.29 98.29 0 0 0 1.682-.217c-.022-1.108-1.008-2.297-2.407-3.374-2.18.243-4.366.402-6.558.475 1.395 1.184 2.377 2.448 2.39 3.557a234.23 234.23 0 0 1-7.633 8.704v-1.136a87.699 87.699 0 0 1-4.587-.247l-.114 14.144a84.536 84.536 0 0 1-1.951-.18c0 1.107.98 2.545 2.406 3.884 2.212.165 4.427.248 6.646.247-1.438-1.23-2.43-2.592-2.439-3.698.009-2.594.017-5.19.024-7.787zm12.355 5.221c-1.62.186-3.243.326-4.87.42.322.657.643 1.312.965 1.965 0 1.107-.988 2.514-2.421 3.804a87.977 87.977 0 0 0 6.347-.491c1.476-1.396 2.498-2.885 2.51-3.996-.54.076-1.08.148-1.617.217-.306-.638-.61-1.278-.914-1.919z"/><path d="M80.325 135.611c2.537.282 5.08.45 7.63.505 1.078-1.174 2.15-2.37 3.218-3.585a86.078 86.078 0 0 1-12.17-.676c-2.27-.028-5.214 1.731-6.952 3.603-.832.858-1.662 1.704-2.49 2.537a322.351 322.351 0 0 0 2.247 3.471c1.723 2.815 4.976 5.916 7.391 6.2.81.1 1.623.187 2.436.263l.034-3.64a89.79 89.79 0 0 1-1.438-.147c-1.883-.192-4.716-3.487-4.688-4.922.026-1.417 2.926-3.797 4.782-3.609zM138.198 103c.387-8.83.066-13.609-1.595-19.126a21.647 21.647 0 0 0-2.481-5.783c-2.467-3.854-6.243-7.611-7.181-9.178a7.197 7.197 0 0 1-.991-4.216 19.914 19.914 0 0 0-1.54 4.995 12.57 12.57 0 0 0 .782 6.07 8.229 8.229 0 0 0 2.825 3.914s.362-2.498-1.496-7.281a15.038 15.038 0 0 1 3.355 7.096c.32 2.264 1.079 11.435 5.449 10.576.214 2.339.278 4.69.19 7.037-6.281 4.21-8.867 11.938-4.89 17.936a12.903 12.903 0 0 1 5.044-14.303c-.714 13.152 1.387 23.747 8.315 27.396-4.283-4.806-6.228-14.995-5.786-25.134zm-112.2 24.91s-.268-11.789 3.484-17.146c3.751-5.358 11.176-9.15 15.132-10.051 4.323-.985-.036 4.768.124 8.081.09 1.876 2.384 2.636 3.925 4.38 3.346 3.801 2.027 6.698-2.08 8.933 3.017 5.108 2.32 8.352-1.407 9.507.536 4.287 1.384 5.512-1.609 6.966-3.886 1.889-17.57-10.67-17.57-10.67zm16.565-29.218s.597-9.801 7.605-15.578c-4.23 8.688-4.231 14.834-4.231 14.834-1.16.048-2.302.3-3.374.744zm55.562-35.694c-.548-2.015-1.354-4.706-2.27-7.114-.966-2.528-6.236-3.33-8.95-3.575 2.428-.28 5.521-1.524 5.283-5.88-.126-2.288-1.079-4.14-1.486-5.78a9.969 9.969 0 0 1 .842-6.49c-2.334.957-4.01 3.405-4.815 6.035a6.031 6.031 0 0 1-.105-1.834 5.508 5.508 0 0 1 .535-1.672 9.308 9.308 0 0 0-3.02 2.135 16.083 16.083 0 0 0-2.64 5.078 20.627 20.627 0 0 1-3.669-11.817c.069-1.998.62-3.779.578-5.515a20.274 20.274 0 0 1-7.299-11.205s3.103 5.514 6.968 8.06a21.037 21.037 0 0 0-4.482-9.16c-2.456-3.064-4.313-5.593-5.403-7.302-2.337-3.652-4.025-.438-2.565 3.36 1.17 3.04 9.056 22.963 12.146 30.777.552 1.395 1.172 2.984.121 4.056l-5.55 5.664.267.035v.02a43.624 43.624 0 0 0 12.032 1.573 7.138 7.138 0 0 0-2.907 1.806 4.995 4.995 0 0 0-1.434 2.846 8.21 8.21 0 0 0-5.93-2.527c-.042.98-.662 15.723 0 18.779.424 1.953 2.32 3.54 4.127 4.824a7.508 7.508 0 0 1 3.089 4.754 3.099 3.099 0 0 0 2.131 2.442c1.383.375 7.071.396 7.071-1.9.098-2.151.069-4.306-.086-6.453-.114-.68-.999-1.284-1.564-1.68a42.998 42.998 0 0 0-3.995-2.48 4.054 4.054 0 0 0-1.84-.745c-1.512.138-1.237 3.436-1.237 3.436a7.103 7.103 0 0 1-1.374-4.26 6.476 6.476 0 0 1 .613-2.552s.34-.703.35-.72a25.097 25.097 0 0 1 3.554-5.074s-1.159 3.205.34 3.973l6.13 2.313s3.123-1.208 5.903-2.24c1.216-.492.832-2.799.541-3.99zm6.753-44.835s-4.702 3.064-6.631 7.285a22.763 22.763 0 0 0-1.571 4.641 8.322 8.322 0 0 1 4.55 1.073c.098.06.131.187.074.287-1.037 1.417-1.702 2.451-.84 3.965a31.426 31.426 0 0 1 1.391 3.86c2.27-3.877 1.106-9.535.808-13.013-.34-3.99 2.22-8.098 2.22-8.098zM92.989 115.728c0-.752-1.268-1.184-1.268-1.184s-1.268.432-1.268 1.184v3.46c0 .751 1.268 1.184 1.268 1.184s1.268-.433 1.268-1.184v-3.46zm-4.06-.123c.119-.742-1.067-1.362-1.067-1.362s-1.32.235-1.439.978l-.548 3.417c-.114.743 1.066 1.363 1.066 1.363s1.321-.235 1.44-.978l.547-3.418zm-3.993-.735c.235-.715-.838-1.507-.838-1.507s-1.341.032-1.576.747l-1.083 3.292c-.235.715.837 1.507.837 1.507s1.342-.032 1.577-.748l1.083-3.291zm-3.823-1.332c.34-.67-.588-1.615-.588-1.615s-1.332-.171-1.677.5l-1.589 3.09c-.34.671.588 1.616.588 1.616s1.332.171 1.677-.5l1.589-3.09zm-3.577-1.895c.447-.611-.326-1.685-.326-1.685s-1.288-.372-1.735.238l-2.06 2.813c-.448.611.325 1.686.325 1.686s1.289.371 1.736-.24l2.06-2.812zm-3.228-2.415c.539-.534-.055-1.714-.055-1.714s-1.214-.567-1.752-.026l-2.48 2.467c-.54.535.054 1.714.054 1.714s1.214.567 1.753.026l2.48-2.467zm-2.807-2.873c.617-.448.216-1.703.216-1.703s-1.11-.739-1.726-.29l-2.838 2.06c-.616.447-.217 1.703-.217 1.703s1.11.739 1.728.292l2.837-2.062zm-2.318-3.265c.68-.348.483-1.648.483-1.648s-.98-.899-1.66-.55l-3.133 1.606c-.682.348-.483 1.648-.483 1.648s.98.898 1.66.55l3.133-1.606zm-1.775-3.576c.728-.242.74-1.555.74-1.555s-.827-1.037-1.555-.795l-3.348 1.111c-.727.242-.738 1.555-.738 1.555s.825 1.037 1.553.795l3.348-1.111zm-1.186-3.802c.756-.128.975-1.424.975-1.424s-.651-1.15-1.408-1.022l-3.484.59c-.757.128-.976 1.425-.976 1.425s.652 1.149 1.408 1.021l3.485-.59zm-.57-3.937c.768-.012 1.189-1.26 1.189-1.26s-.462-1.232-1.23-1.22l-3.537.055c-.767.012-1.19 1.26-1.19 1.26s.464 1.234 1.231 1.221l3.536-.056zm.058-3.975c.76.105 1.375-1.063 1.375-1.063s-.261-1.29-1.022-1.394l-3.202-.428c-.76-.104-1.375 1.064-1.375 1.064s.263 1.289 1.022 1.393c.152.022 3.054.408 3.202.428zm.688-3.917c.735.218 1.526-.844 1.526-.844s-.055-1.313-.795-1.53l-2.302-.705c-.734-.218-1.525.844-1.525.844s.054 1.312.794 1.531c.147.043 2.156.66 2.302.704zm.997-3.894c.691.327 1.64-.601 1.64-.601s.154-1.306-.537-1.633c-.138-.065-.807-.41-.944-.476-.692-.327-1.642.601-1.642.601s-.154 1.306.537 1.633c.134.065.807.41.946.476zm27.113 35.573c-.124-.741 1.055-1.369 1.055-1.369s1.324.227 1.448.967l.573 3.415c.123.742-1.056 1.37-1.056 1.37s-1.322-.227-1.447-.967l-.573-3.416zm3.992-.764c-.24-.713.825-1.512.825-1.512s1.343.023 1.584.736l1.106 3.292c.24.714-.826 1.512-.826 1.512s-1.343-.023-1.582-.736l-1.107-3.292zM146.27 87.744c-.103-.739-1.313-.837-1.313-.837s-1.108.751-1.022 1.489c-.042.148 1.487 11.01 1.57 11.164.114.738 1.476.837 1.476.837s1.209-.752 1.076-1.49c-.084-.147-1.82-11.015-1.787-11.163zm-3.796 2.097c-.083-.738-1.312-.837-1.312-.837s-1.152.752-1.088 1.49c-.046.147 1.174 11.01 1.248 11.164.094.738 1.476.836 1.476.836s1.249-.751 1.135-1.489c-.075-.148-1.502-11.016-1.459-11.164zM19.15 116.253c-.466-.658-1.682-.189-1.682-.186 0 .002-.68 1.248-.203 1.918.06.213 4.854 6.508 4.986 6.546.496.603 1.683.04 1.683.042 0 .002.62-1.23.133-1.825-.13-.038-4.858-6.282-4.917-6.495zm-.066-7.302c-.437-.687-1.672-.301-1.673-.3-.002.003-.73 1.205-.283 1.9.039.245 5.284 7.85 5.426 7.866.474.625 1.682.137 1.682.139 0 .002.664-1.182.199-1.8-.141-.016-5.313-7.56-5.351-7.805zm1.578-5.262c-.417-.7-1.665-.383-1.665-.38 0 .002-.767 1.15-.34 1.858.035.24 4.848 7.73 4.985 7.757.455.64 1.68.222 1.68.227 0 .006.702-1.135.256-1.762-.136-.032-4.882-7.462-4.916-7.7zm3.467-2.506c-.406-.692-1.658-.423-1.66-.42 0 .002-.784 1.093-.37 1.79.054.196 3.505 5.889 3.62 5.961.437.647 1.673.291 1.673.293 0 .003.734-1.074.305-1.714-.118-.074-3.52-5.719-3.568-5.91z"/></g><g fill="#3D7CC9"><path d="M47.075 106.886c.896-2.505 2.732-4.723.863-7.594 5.942.801 6.834 10.123 6.834 10.123a28.565 28.565 0 0 0-6.175.444c-2.363.377-1.86-2.026-1.522-2.973zM102.317 113.443c-.35-.669.577-1.619.577-1.619s1.33-.181 1.681.487l1.613 3.08c.35.668-.576 1.62-.576 1.62s-1.33.18-1.68-.488l-1.615-3.08zm3.558-1.924c-.454-.607.313-1.687.313-1.687s1.285-.38 1.737.227l2.082 2.797c.454.609-.313 1.688-.313 1.688s-1.287.38-1.738-.227l-2.081-2.798zm3.21-2.437c-.543-.531.043-1.714.043-1.714s1.21-.568 1.752-.039l2.497 2.449c.543.532-.042 1.714-.042 1.714s-1.21.567-1.753.04l-2.497-2.45zm2.79-2.894c-.62-.442-.227-1.702-.227-1.702s1.106-.747 1.726-.303l2.856 2.043c.62.444.227 1.702.227 1.702s-1.105.747-1.726.305l-2.856-2.045zm2.29-3.28c-.681-.34-.495-1.645-.495-1.645s.973-.908 1.656-.568l3.144 1.59c.681.34.496 1.644.496 1.644s-.974.909-1.656.562l-3.145-1.583zm1.748-3.59c-.729-.236-.75-1.549-.75-1.549s.818-1.042 1.547-.806l3.358 1.088c.728.236.749 1.55.749 1.55s-.819 1.042-1.547.806l-3.357-1.089zm1.158-3.81c-.757-.123-.986-1.418-.986-1.418s.643-1.153 1.401-1.03c.151.024 3.034.504 3.187.528.757.124.986 1.418.986 1.418s-.644 1.153-1.402 1.03l-3.186-.528zm.541-3.94c-.767 0-1.198-1.249-1.198-1.249s.454-1.236 1.22-1.23h2.413c.767.006 1.199 1.248 1.199 1.248s-.454 1.236-1.222 1.23c-.153.002-2.259.003-2.412 0zm.24-4.006c-.76.113-1.383-1.055-1.383-1.055s.252-1.29 1.013-1.4c.15-.022.894-.156 1.046-.177.76-.114 1.383 1.053 1.383 1.053s-.252 1.29-1.012 1.4c-.152.023-.894.157-1.047.179zM161.384 84.277c-.199-.738-1.384-.837-1.385-.837-.001 0-.974.75-.795 1.49-.023.147 2.912 11.016 3.014 11.164.21.738 1.546.836 1.546.836s1.074-.751.846-1.489c-.105-.147-3.242-11.016-3.226-11.164zm-3.837.22c-.174-.74-1.362-.839-1.362-.839s-1.004.752-.848 1.49c-.029.147 2.531 11.01 2.629 11.164.185.738 1.519.836 1.519.836s1.103-.75.899-1.489c-.096-.152-2.862-11.019-2.837-11.163zm-3.772.622c-.15-.737-1.337-.836-1.337-.836s-1.036.751-.908 1.49c-.032.147 2.166 11.01 2.258 11.163.162.738 1.499.837 1.499.837s1.135-.752.956-1.49c-.097-.147-2.499-11.016-2.468-11.164zm-3.765.946c-.126-.74-1.322-.838-1.322-.838s-1.068.752-.961 1.49c-.038.147 1.816 11.011 1.901 11.164.136.739 1.482.837 1.482.837s1.168-.751 1.012-1.49c-.09-.148-2.148-11.016-2.112-11.163zM28.072 100.133c-.402-.675-1.655-.44-1.656-.438-.002.002-.795 1.037-.384 1.718.067.165 2.528 4.162 2.627 4.261.425.643 1.668.341 1.668.341s.753-1.022.34-1.655c-.103-.102-2.53-4.065-2.595-4.227zm4.617.327c-.401-.647-1.655-.436-1.655-.435 0 .001-.794.983-.382 1.638.08.135.992 1.59 1.077 1.708.416.636 1.662.375 1.662.377 0 .002.77-.966.36-1.595a97.081 97.081 0 0 1-1.062-1.693zM132.851 63.496c.367-3.178 2.82-8.375 8.15-5.42 0 0 2.304-4.22 4.616-3.824 2.312.396 4.17 2.116 6.295 6.376a202.715 202.715 0 0 1 8.32 20.595 50.39 50.39 0 0 0-10.557 1.469 36.842 36.842 0 0 0-10.025 4.67 39.708 39.708 0 0 0-3.878-10.49c-2.03-3.777-5.903-6.447-7.33-9.807-1.405-3.324.05-5.795 4.41-3.569zM49.703 111.67s6.056-1.215 7.81-.737c1.753.477 4.144 4.303 2.071 6.376a20.8 20.8 0 0 1-5.486 3.548s.727 1.255 4.71-.817c1.117 2.87.064 6.345-7.192 9.382a9.168 9.168 0 0 0 4.806-.776s1.442 3.563-4.775 6.91c-2.71 1.435-4.02 2.01-4.02 2.01.215-1.72.052-3.465-.475-5.116 1.795-.977 5.249-3.49 1.979-9.865 2.09-2.014 6.274-4.771.572-10.915zm36.773-23.407s3.884-.27 5.246-1.637c1.165 1.233 5.667 1.536 5.667 1.536s-.301 1.1-5.607 1.1c-5.305 0-5.306-1-5.306-1zm16.772-30.123a17.899 17.899 0 0 0-2.196-2.434c-1.802-1.395-3.32-.58-3.065 1.174.507 3.462 1.616 6.108 3.891 11.409.471.936.75 1.957.823 3.002a7.1 7.1 0 0 1-1.375 4.26s.275-3.298-1.237-3.436a4.054 4.054 0 0 0-1.84.745 43.153 43.153 0 0 0-3.994 2.48c-.568.397-1.45 1-1.565 1.68a55.068 55.068 0 0 0-.085 6.452c0 2.297 5.687 2.276 7.07 1.9a2.75 2.75 0 0 0 2.11-2.327 7.966 7.966 0 0 1 3.114-4.87c1.806-1.284 3.7-2.869 4.124-4.822.652-3.004.066-17.294 0-18.71l-5.775 3.497zm-77.72 21.723a14.944 14.944 0 0 1 8.376 8.38c2.201 5.806 1.537 13.866 1.537 13.866a34.553 34.553 0 0 1 3.1-1.716A27.333 27.333 0 0 0 36.69 87.54c-3.041-7.873-11.162-7.68-11.162-7.68z"/><path d="M107.18 84.286c-.695 7.658-3.76 15.177-5.15 18.797-1.393 3.62 2.087 4.595 7.27.227a17.44 17.44 0 0 0 4.916-14.229l-2.64-14.599c-.865 4.434-5.108 4.169-6.827 7.746-1.108 2.3-2.24 4.966-5.023 5.967a3.596 3.596 0 0 1-3.586 3.354h-2.157c.236 2.523-.41 5.05-1.826 7.151-3.238 5.079.036 11.402.036 11.402 7.702-6.497 11.646-18.158 14.987-25.816zM80.628 26.255c-.34 3.984-1.504 8.58.809 13.013a8.809 8.809 0 0 1 5.72-5.292 22.038 22.038 0 0 0-2.07-8.528c-1.93-4.22-6.633-7.285-6.633-7.285s2.505 4.184 2.174 8.092zm37.084-15.933c1.46-3.797-.227-7.01-2.565-3.359-1.093 1.703-2.952 4.232-5.403 7.303a21.025 21.025 0 0 0-4.482 9.16c3.86-2.547 6.967-8.06 6.967-8.06a20.274 20.274 0 0 1-7.298 11.206c-.041 1.735.51 3.519.576 5.514a20.364 20.364 0 0 1-3.717 11.817c-1.518-4.549-3.115-5.945-3.952-7.991a4.177 4.177 0 0 1 .032-3.52c-3.436-.089-7.179 3.258-5.222 9.158 2.73 8.228-.466 8.763.016 10.384.294.99 3.202 1.146 6.298.104a26.58 26.58 0 0 1 11.98-1.22s-1.975-2.06-4.314-4.427l-1.233-1.242c-.9-.873-.672-2.149.122-4.056 3.228-7.751 11.025-27.73 12.195-30.77zm16.056 124.85a38.382 38.382 0 0 1-5.2-14.726s-2.107 4.777-.436 8.81a12.63 12.63 0 0 0 5.636 5.916z"/></g></g></svg>